<svg width="128" height="129" viewBox="0 0 128 129" fill="none" xmlns="http://www.w3.org/2000/svg">
<rect y="0.78125" width="128" height="128" rx="20" fill="#F39122"/>
<path d="M41.6806 101.481C39.7312 101.481 38.0625 100.787 36.6744 99.3988C35.2864 98.0107 34.5924 96.342 34.5924 94.3926V85.7967C34.5924 84.9635 34.8743 84.2649 35.4383 83.701C36.0023 83.1376 36.7009 82.856 37.5341 82.856C38.368 82.856 39.0662 83.1376 39.6289 83.701C40.1922 84.2649 40.4739 84.9635 40.4739 85.7967V94.3926C40.4739 94.7448 40.5869 95.034 40.8131 95.2601C41.0392 95.4862 41.3283 95.5993 41.6806 95.5993H86.3194C86.6717 95.5993 86.9608 95.4862 87.1869 95.2601C87.4131 95.034 87.5261 94.7448 87.5261 94.3926V85.7967C87.5261 84.9635 87.8081 84.2649 88.3721 83.701C88.9361 83.1376 89.6346 82.856 90.4679 82.856C91.3017 82.856 92 83.1376 92.5627 83.701C93.126 84.2649 93.4076 84.9635 93.4076 85.7967V94.3926C93.4076 96.342 92.7136 98.0107 91.3256 99.3988C89.9375 100.787 88.2688 101.481 86.3194 101.481H41.6806ZM34.5924 34.0697C34.5924 32.1203 35.2864 30.4515 36.6744 29.0635C38.0625 27.6755 39.7312 26.9814 41.6806 26.9814H69.8894C70.8454 26.9814 71.7568 27.1651 72.6233 27.5323C73.4898 27.899 74.245 28.4041 74.8887 29.0478L91.3413 45.5004C91.985 46.1441 92.4901 46.8992 92.8567 47.7658C93.224 48.6323 93.4076 49.5436 93.4076 50.4997V58.3496C93.4076 59.1828 93.1257 59.8814 92.5617 60.4454C91.9977 61.0087 91.2991 61.2904 90.4659 61.2904C89.632 61.2904 88.9338 61.0087 88.3711 60.4454C87.8078 59.8814 87.5261 59.1828 87.5261 58.3496V50.5076H73.4095C72.4096 50.5076 71.5718 50.1694 70.8961 49.493C70.2197 48.8166 69.8815 47.9785 69.8815 46.9786V32.863H41.6806C41.3283 32.863 41.0392 32.976 40.8131 33.2021C40.5869 33.4283 40.4739 33.7174 40.4739 34.0697V58.3496C40.4739 59.1828 40.1919 59.8814 39.6279 60.4454C39.0639 61.0087 38.3654 61.2904 37.5321 61.2904C36.6983 61.2904 36 61.0087 35.4373 60.4454C34.874 59.8814 34.5924 59.1828 34.5924 58.3496V34.0697ZM103.059 75.0139H24.9408C24.1075 75.0139 23.409 74.7319 22.845 74.168C22.2817 73.604 22 72.9054 22 72.0722C22 71.2383 22.2817 70.5401 22.845 69.9774C23.409 69.4141 24.1075 69.1324 24.9408 69.1324H103.059C103.892 69.1324 104.591 69.4144 105.155 69.9784C105.718 70.5423 106 71.2409 106 72.0742C106 72.908 105.718 73.6063 105.155 74.169C104.591 74.7323 103.892 75.0139 103.059 75.0139Z" fill="white"/>
<path d="M51.8661 40.9731L48.7982 44.041L51.8842 47.127C52.1728 47.4159 52.317 47.7428 52.317 48.1076C52.317 48.4728 52.1728 48.7998 51.8842 49.0887C51.5954 49.3775 51.2606 49.519 50.8799 49.5131C50.4992 49.5069 50.1705 49.3654 49.8937 49.0887L46.0235 45.2189C45.8494 45.0445 45.7265 44.8607 45.6549 44.6674C45.5832 44.4741 45.5474 44.2653 45.5474 44.041C45.5474 43.8166 45.5832 43.6078 45.6549 43.4145C45.7265 43.2213 45.8494 43.0374 46.0235 42.863L49.8756 39.0109C50.1644 38.7224 50.4963 38.5781 50.8711 38.5781C51.2455 38.5781 51.5772 38.7224 51.8661 39.0109C52.1549 39.2998 52.2964 39.6298 52.2905 40.0008C52.2843 40.3719 52.1428 40.696 51.8661 40.9731Z" fill="white"/>
<path d="M58.8578 47.127L61.9438 44.041L58.8578 40.9549C58.5692 40.6661 58.4249 40.3392 58.4249 39.9743C58.4249 39.6091 58.5692 39.2821 58.8578 38.9933C58.9964 38.8549 59.1551 38.7511 59.3339 38.6819C59.5129 38.6127 59.689 38.5781 59.8621 38.5781C60.0352 38.5781 60.2082 38.6127 60.381 38.6819C60.5541 38.7511 60.7099 38.8549 60.8483 38.9933L64.7185 42.863C64.8926 43.0374 65.0154 43.2213 65.0871 43.4145C65.1588 43.6078 65.1946 43.8166 65.1946 44.041C65.1946 44.2653 65.1588 44.4741 65.0871 44.6674C65.0154 44.8607 64.8926 45.0445 64.7185 45.2189L60.8483 49.0887C60.5594 49.3775 60.2277 49.522 59.8532 49.522C59.4784 49.522 59.1466 49.3775 58.8578 49.0887C58.5692 48.7998 58.4279 48.4699 58.4338 48.0988C58.4397 47.7277 58.581 47.4038 58.8578 47.127Z" fill="white"/>
</svg>
