<svg width="128" height="128" viewBox="0 0 128 128" fill="none" xmlns="http://www.w3.org/2000/svg">
<rect width="128" height="128" rx="20" fill="#F39122"/>
<path d="M64 22C62.9915 22 62.1739 22.8176 62.1739 23.8261C62.1739 24.8346 62.9915 25.6522 64 25.6522C65.0085 25.6522 65.8261 24.8346 65.8261 23.8261C65.8261 22.8176 65.0085 22 64 22ZM56.1464 22.7311C55.1379 22.7311 54.3203 23.5487 54.3203 24.5572C54.3203 25.5658 55.1379 26.3833 56.1464 26.3833C57.1549 26.3833 57.9725 25.5658 57.9725 24.5572C57.9725 23.5487 57.1549 22.7311 56.1464 22.7311ZM71.8536 22.7311C70.8451 22.7311 70.0275 23.5487 70.0275 24.5572C70.0275 25.5658 70.8451 26.3833 71.8536 26.3833C72.8621 26.3833 73.6797 25.5658 73.6797 24.5572C73.6797 23.5487 72.8621 22.7311 71.8536 22.7311ZM48.6602 25.1029C47.6516 25.1029 46.8341 25.9205 46.8341 26.929C46.8341 27.9375 47.6516 28.7551 48.6602 28.7551C49.6687 28.7551 50.4862 27.9375 50.4862 26.929C50.4862 25.9205 49.6687 25.1029 48.6602 25.1029ZM79.3398 25.1029C78.3313 25.1029 77.5138 25.9205 77.5138 26.929C77.5138 27.9375 78.3313 28.7551 79.3398 28.7551C80.3484 28.7551 81.1659 27.9375 81.1659 26.929C81.1659 25.9205 80.3484 25.1029 79.3398 25.1029ZM41.7232 28.7551C40.7146 28.7551 39.8971 29.5727 39.8971 30.5812C39.8971 31.5897 40.7146 32.4073 41.7232 32.4073C42.7317 32.4073 43.5493 31.5897 43.5493 30.5812C43.5493 29.5727 42.7317 28.7551 41.7232 28.7551ZM86.2768 28.7551C85.2683 28.7551 84.4507 29.5727 84.4507 30.5812C84.4507 31.5897 85.2683 32.4073 86.2768 32.4073C87.2854 32.4073 88.1029 31.5897 88.1029 30.5812C88.1029 29.5727 87.2854 28.7551 86.2768 28.7551ZM64 32.9565C46.8876 32.9565 32.9565 46.8876 32.9565 64C32.9565 81.1124 46.8876 95.0435 64 95.0435C81.1124 95.0435 95.0435 81.1124 95.0435 64C95.0435 46.8876 81.1124 32.9565 64 32.9565ZM35.5138 33.6877C34.5052 33.6877 33.6877 34.5052 33.6877 35.5138C33.6877 35.9981 33.8801 36.4625 34.2225 36.805C34.565 37.1475 35.0294 37.3398 35.5138 37.3398C35.9981 37.3398 36.4625 37.1475 36.805 36.805C37.1475 36.4625 37.3398 35.9981 37.3398 35.5138C37.3398 35.0294 37.1475 34.565 36.805 34.2225C36.4625 33.8801 35.9981 33.6877 35.5138 33.6877ZM92.4862 33.6877C91.4777 33.6877 90.6602 34.5052 90.6602 35.5138C90.6602 35.9981 90.8525 36.4625 91.195 36.805C91.5375 37.1475 92.0019 37.3398 92.4862 37.3398C92.9705 37.3398 93.435 37.1475 93.7775 36.805C94.1199 36.4625 94.3123 35.9981 94.3123 35.5138C94.3123 34.5052 93.4948 33.6877 92.4862 33.6877ZM64 38.4348C78.1517 38.4348 89.5652 49.8483 89.5652 64C89.5652 78.1517 78.1517 89.5652 64 89.5652C49.8483 89.5652 38.4348 78.1517 38.4348 64C38.4348 49.8483 49.8483 38.4348 64 38.4348ZM30.5812 39.8971C29.5727 39.8971 28.7551 40.7146 28.7551 41.7232C28.7551 42.7317 29.5727 43.5493 30.5812 43.5493C31.5897 43.5493 32.4073 42.7317 32.4073 41.7232C32.4073 40.7146 31.5897 39.8971 30.5812 39.8971ZM97.4188 39.8971C96.4103 39.8971 95.5927 40.7146 95.5927 41.7232C95.5927 42.7317 96.4103 43.5493 97.4188 43.5493C98.4273 43.5493 99.2449 42.7317 99.2449 41.7232C99.2449 40.7146 98.4273 39.8971 97.4188 39.8971ZM64 45.7391C53.9797 45.7391 45.7391 53.9797 45.7391 64C45.7391 74.0203 53.9797 82.2609 64 82.2609C74.0203 82.2609 82.2609 74.0203 82.2609 64C82.2609 53.9797 74.0203 45.7391 64 45.7391ZM26.929 46.8341C25.9205 46.8341 25.1029 47.6516 25.1029 48.6602C25.1029 49.6687 25.9205 50.4862 26.929 50.4862C27.9375 50.4862 28.7551 49.6687 28.7551 48.6602C28.7551 47.6516 27.9375 46.8341 26.929 46.8341ZM101.071 46.8341C100.062 46.8341 99.2449 47.6516 99.2449 48.6602C99.2449 49.6687 100.062 50.4862 101.071 50.4862C102.08 50.4862 102.897 49.6687 102.897 48.6602C102.897 47.6516 102.08 46.8341 101.071 46.8341ZM24.5572 54.3203C23.5487 54.3203 22.7311 55.1379 22.7311 56.1464C22.7311 57.1549 23.5487 57.9725 24.5572 57.9725C25.5658 57.9725 26.3833 57.1549 26.3833 56.1464C26.3833 55.1379 25.5658 54.3203 24.5572 54.3203ZM103.443 54.3203C102.434 54.3203 101.617 55.1379 101.617 56.1464C101.617 57.1549 102.434 57.9725 103.443 57.9725C104.451 57.9725 105.269 57.1549 105.269 56.1464C105.269 55.1379 104.451 54.3203 103.443 54.3203ZM64 56.6957C68.099 56.6957 71.3043 59.901 71.3043 64C71.3043 68.099 68.099 71.3043 64 71.3043C59.901 71.3043 56.6957 68.099 56.6957 64C56.6957 59.901 59.901 56.6957 64 56.6957ZM23.8261 62.1739C22.8176 62.1739 22 62.9915 22 64C22 65.0085 22.8176 65.8261 23.8261 65.8261C24.8346 65.8261 25.6522 65.0085 25.6522 64C25.6522 62.9915 24.8346 62.1739 23.8261 62.1739ZM104.174 62.1739C103.165 62.1739 102.348 62.9915 102.348 64C102.348 65.0085 103.165 65.8261 104.174 65.8261C105.182 65.8261 106 65.0085 106 64C106 62.9915 105.182 62.1739 104.174 62.1739ZM24.5572 70.0275C23.5487 70.0275 22.7311 70.8451 22.7311 71.8536C22.7311 72.8621 23.5487 73.6797 24.5572 73.6797C25.5658 73.6797 26.3833 72.8621 26.3833 71.8536C26.3833 70.8451 25.5658 70.0275 24.5572 70.0275ZM103.443 70.0275C102.434 70.0275 101.617 70.8451 101.617 71.8536C101.617 72.8621 102.434 73.6797 103.443 73.6797C104.451 73.6797 105.269 72.8621 105.269 71.8536C105.269 70.8451 104.451 70.0275 103.443 70.0275ZM26.929 77.5138C25.9205 77.5138 25.1029 78.3313 25.1029 79.3398C25.1029 80.3484 25.9205 81.1659 26.929 81.1659C27.9375 81.1659 28.7551 80.3484 28.7551 79.3398C28.7551 78.3313 27.9375 77.5138 26.929 77.5138ZM101.071 77.5138C100.062 77.5138 99.2449 78.3313 99.2449 79.3398C99.2449 80.3484 100.062 81.1659 101.071 81.1659C102.08 81.1659 102.897 80.3484 102.897 79.3398C102.897 78.3313 102.08 77.5138 101.071 77.5138ZM30.5812 84.4507C29.5727 84.4507 28.7551 85.2683 28.7551 86.2768C28.7551 87.2854 29.5727 88.1029 30.5812 88.1029C31.5897 88.1029 32.4073 87.2854 32.4073 86.2768C32.4073 85.2683 31.5897 84.4507 30.5812 84.4507ZM97.4188 84.4507C96.4103 84.4507 95.5927 85.2683 95.5927 86.2768C95.5927 87.2854 96.4103 88.1029 97.4188 88.1029C98.4273 88.1029 99.2449 87.2854 99.2449 86.2768C99.2449 85.2683 98.4273 84.4507 97.4188 84.4507ZM35.5138 90.6602C34.5052 90.6602 33.6877 91.4777 33.6877 92.4862C33.6877 93.4948 34.5052 94.3123 35.5138 94.3123C35.9981 94.3123 36.4625 94.1199 36.805 93.7775C37.1475 93.435 37.3398 92.9705 37.3398 92.4862C37.3398 92.0019 37.1475 91.5375 36.805 91.195C36.4625 90.8525 35.9981 90.6602 35.5138 90.6602ZM92.4862 90.6602C91.4777 90.6602 90.6602 91.4777 90.6602 92.4862C90.6602 93.4948 91.4777 94.3123 92.4862 94.3123C93.4948 94.3123 94.3123 93.4948 94.3123 92.4862C94.3123 91.4777 93.4948 90.6602 92.4862 90.6602ZM41.7232 95.5927C40.7146 95.5927 39.8971 96.4103 39.8971 97.4188C39.8971 98.4273 40.7146 99.2449 41.7232 99.2449C42.7317 99.2449 43.5493 98.4273 43.5493 97.4188C43.5493 96.4103 42.7317 95.5927 41.7232 95.5927ZM86.2768 95.5927C85.2683 95.5927 84.4507 96.4103 84.4507 97.4188C84.4507 98.4273 85.2683 99.2449 86.2768 99.2449C87.2854 99.2449 88.1029 98.4273 88.1029 97.4188C88.1029 96.4103 87.2854 95.5927 86.2768 95.5927ZM48.6602 99.2449C47.6516 99.2449 46.8341 100.062 46.8341 101.071C46.8341 102.08 47.6516 102.897 48.6602 102.897C49.6687 102.897 50.4862 102.08 50.4862 101.071C50.4862 100.062 49.6687 99.2449 48.6602 99.2449ZM79.3398 99.2449C78.3313 99.2449 77.5138 100.062 77.5138 101.071C77.5138 102.08 78.3313 102.897 79.3398 102.897C80.3484 102.897 81.1659 102.08 81.1659 101.071C81.1659 100.062 80.3484 99.2449 79.3398 99.2449ZM56.1464 101.617C55.1379 101.617 54.3203 102.434 54.3203 103.443C54.3203 104.451 55.1379 105.269 56.1464 105.269C57.1549 105.269 57.9725 104.451 57.9725 103.443C57.9725 102.434 57.1549 101.617 56.1464 101.617ZM71.8536 101.617C70.8451 101.617 70.0275 102.434 70.0275 103.443C70.0275 104.451 70.8451 105.269 71.8536 105.269C72.8621 105.269 73.6797 104.451 73.6797 103.443C73.6797 102.434 72.8621 101.617 71.8536 101.617ZM64 102.348C62.9915 102.348 62.1739 103.165 62.1739 104.174C62.1739 105.182 62.9915 106 64 106C65.0085 106 65.8261 105.182 65.8261 104.174C65.8261 103.165 65.0085 102.348 64 102.348Z" fill="white"/>
</svg>
