<svg width="128" height="129" viewBox="0 0 128 129" fill="none" xmlns="http://www.w3.org/2000/svg">
<rect y="0.28125" width="128" height="128" rx="20" fill="#F39122"/>
<path d="M52.2455 89.2768C50.0129 89.2768 48.1229 88.5031 46.5755 86.9557C45.0282 85.4084 44.2545 83.5184 44.2545 81.2857V30.2734C44.2545 28.04 45.0282 26.1497 46.5755 24.6023C48.1229 23.0549 50.0129 22.2812 52.2455 22.2812H89.9947C92.2281 22.2812 94.1184 23.0549 95.6658 24.6023C97.2132 26.1497 97.9868 28.04 97.9868 30.2734V81.2857C97.9868 83.5184 97.2132 85.4084 95.6658 86.9557C94.1184 88.5031 92.2281 89.2768 89.9947 89.2768H52.2455ZM52.2455 82.6452H89.9947C90.3351 82.6452 90.6468 82.5037 90.9297 82.2208C91.2134 81.9371 91.3553 81.6254 91.3553 81.2857V30.2734C91.3553 29.933 91.2134 29.6213 90.9297 29.3384C90.6468 29.0547 90.3351 28.9128 89.9947 28.9128H52.2455C51.9058 28.9128 51.5942 29.0547 51.3105 29.3384C51.0275 29.6213 50.8861 29.933 50.8861 30.2734V81.2857C50.8861 81.6254 51.0275 81.9371 51.3105 82.2208C51.5942 82.5037 51.9058 82.6452 52.2455 82.6452ZM30.8211 43.7057C29.8094 43.7057 28.9613 43.3638 28.2768 42.68C27.5923 41.9955 27.25 41.1474 27.25 40.1357C27.25 39.124 27.5923 38.2759 28.2768 37.5914C28.9613 36.9068 29.8094 36.5646 30.8211 36.5646C31.8328 36.5646 32.6809 36.9068 33.3654 37.5914C34.0499 38.2759 34.3922 39.124 34.3922 40.1357C34.3922 41.1474 34.0499 41.9955 33.3654 42.68C32.6809 43.3638 31.8328 43.7057 30.8211 43.7057ZM30.8211 59.3496C29.8094 59.3496 28.9613 59.0073 28.2768 58.3228C27.5923 57.639 27.25 56.7913 27.25 55.7796C27.25 54.7679 27.5923 53.9198 28.2768 53.2352C28.9613 52.5507 29.8094 52.2085 30.8211 52.2085C31.8328 52.2085 32.6809 52.5507 33.3654 53.2352C34.0499 53.9198 34.3922 54.7679 34.3922 55.7796C34.3922 56.7913 34.0499 57.639 33.3654 58.3228C32.6809 59.0073 31.8328 59.3496 30.8211 59.3496ZM30.8211 74.9935C29.8094 74.9935 28.9613 74.6512 28.2768 73.9667C27.5923 73.2821 27.25 72.434 27.25 71.4224C27.25 70.4107 27.5923 69.5629 28.2768 68.8791C28.9613 68.1946 29.8094 67.8524 30.8211 67.8524C31.8328 67.8524 32.6809 68.1946 33.3654 68.8791C34.0499 69.5629 34.3922 70.4107 34.3922 71.4224C34.3922 72.434 34.0499 73.2821 33.3654 73.9667C32.6809 74.6512 31.8328 74.9935 30.8211 74.9935ZM30.8211 90.6374C29.8094 90.6374 28.9613 90.2951 28.2768 89.6106C27.5923 88.926 27.25 88.0779 27.25 87.0662C27.25 86.0546 27.5923 85.2065 28.2768 84.5219C28.9613 83.8381 29.8094 83.4962 30.8211 83.4962C31.8328 83.4962 32.6809 83.8381 33.3654 84.5219C34.0499 85.2065 34.3922 86.0546 34.3922 87.0662C34.3922 88.0779 34.0499 88.926 33.3654 89.6106C32.6809 90.2951 31.8328 90.6374 30.8211 90.6374ZM30.8211 106.281C29.8094 106.281 28.9613 105.939 28.2768 105.254C27.5923 104.57 27.25 103.722 27.25 102.71C27.25 101.698 27.5923 100.85 28.2768 100.166C28.9613 99.4813 29.8094 99.139 30.8211 99.139C31.8328 99.139 32.6809 99.4813 33.3654 100.166C34.0499 100.85 34.3922 101.698 34.3922 102.71C34.3922 103.722 34.0499 104.57 33.3654 105.254C32.6809 105.939 31.8328 106.281 30.8211 106.281ZM46.465 106.281C45.4533 106.281 44.6052 105.939 43.9207 105.254C43.2362 104.57 42.8939 103.722 42.8939 102.71C42.8939 101.698 43.2362 100.85 43.9207 100.166C44.6052 99.4813 45.4533 99.139 46.465 99.139C47.4767 99.139 48.3248 99.4813 49.0093 100.166C49.6931 100.85 50.035 101.698 50.035 102.71C50.035 103.722 49.6931 104.57 49.0093 105.254C48.3248 105.939 47.4767 106.281 46.465 106.281ZM62.1089 106.281C61.0972 106.281 60.2491 105.939 59.5646 105.254C58.8801 104.57 58.5378 103.722 58.5378 102.71C58.5378 101.698 58.8801 100.85 59.5646 100.166C60.2491 99.4813 61.0972 99.139 62.1089 99.139C63.1206 99.139 63.9683 99.4813 64.6521 100.166C65.3366 100.85 65.6789 101.698 65.6789 102.71C65.6789 103.722 65.3366 104.57 64.6521 105.254C63.9683 105.939 63.1206 106.281 62.1089 106.281ZM77.7517 106.281C76.74 106.281 75.8923 105.939 75.2085 105.254C74.5239 104.57 74.1817 103.722 74.1817 102.71C74.1817 101.698 74.5239 100.85 75.2085 100.166C75.8923 99.4813 76.74 99.139 77.7517 99.139C78.7634 99.139 79.6115 99.4813 80.296 100.166C80.9805 100.85 81.3228 101.698 81.3228 102.71C81.3228 103.722 80.9805 104.57 80.296 105.254C79.6115 105.939 78.7634 106.281 77.7517 106.281Z" fill="white"/>
<path d="M79.8926 45.8913H62.2084C61.2689 45.8913 60.4816 45.5738 59.8464 44.9386C59.2105 44.3042 58.8926 43.5169 58.8926 42.5767C58.8926 41.6372 59.2105 40.8495 59.8464 40.2136C60.4816 39.5777 61.2689 39.2598 62.2084 39.2598H79.8926C80.8321 39.2598 81.6194 39.5773 82.2545 40.2125C82.8904 40.8469 83.2084 41.6342 83.2084 42.5744C83.2084 43.5139 82.8904 44.3016 82.2545 44.9375C81.6194 45.5734 80.8321 45.8913 79.8926 45.8913Z" fill="white"/>
<path d="M79.8926 59.1545H62.2084C61.2689 59.1545 60.4816 58.8369 59.8464 58.2018C59.2105 57.5673 58.8926 56.78 58.8926 55.8398C58.8926 54.9003 59.2105 54.1127 59.8464 53.4768C60.4816 52.8409 61.2689 52.5229 62.2084 52.5229H79.8926C80.8321 52.5229 81.6194 52.8405 82.2545 53.4757C82.8904 54.1101 83.2084 54.8974 83.2084 55.8376C83.2084 56.7771 82.8904 57.5648 82.2545 58.2007C81.6194 58.8366 80.8321 59.1545 79.8926 59.1545Z" fill="white"/>
<path d="M79.8926 72.4177H62.2084C61.2689 72.4177 60.4816 72.1001 59.8464 71.4649C59.2105 70.8305 58.8926 70.0432 58.8926 69.103C58.8926 68.1635 59.2105 67.3758 59.8464 66.7399C60.4816 66.104 61.2689 65.7861 62.2084 65.7861H79.8926C80.8321 65.7861 81.6194 66.1037 82.2545 66.7388C82.8904 67.3732 83.2084 68.1606 83.2084 69.1008C83.2084 70.0402 82.8904 70.8279 82.2545 71.4638C81.6194 72.0997 80.8321 72.4177 79.8926 72.4177Z" fill="white"/>
</svg>
