<svg width="128" height="129" viewBox="0 0 128 129" fill="none" xmlns="http://www.w3.org/2000/svg">
<rect y="0.28125" width="128" height="128" rx="20" fill="#F39122"/>
<path d="M53.2953 89.2113C51.0627 89.2113 49.1727 88.4377 47.6253 86.8903C46.078 85.3429 45.3043 83.4529 45.3043 81.2203V30.208C45.3043 27.9746 46.078 26.0842 47.6253 24.5369C49.1727 22.9895 51.0627 22.2158 53.2953 22.2158H91.0445C93.2779 22.2158 95.1682 22.9895 96.7156 24.5369C98.263 26.0842 99.0366 27.9746 99.0366 30.208V81.2203C99.0366 83.4529 98.263 85.3429 96.7156 86.8903C95.1682 88.4377 93.2779 89.2113 91.0445 89.2113H53.2953ZM53.2953 82.5798H91.0445C91.3849 82.5798 91.6966 82.4383 91.9795 82.1553C92.2632 81.8717 92.4051 81.56 92.4051 81.2203V30.208C92.4051 29.8676 92.2632 29.5559 91.9795 29.2729C91.6966 28.9892 91.3849 28.8474 91.0445 28.8474H53.2953C52.9556 28.8474 52.644 28.9892 52.3603 29.2729C52.0773 29.5559 51.9359 29.8676 51.9359 30.208V81.2203C51.9359 81.56 52.0773 81.8717 52.3603 82.1553C52.644 82.4383 52.9556 82.5798 53.2953 82.5798ZM31.8709 43.6402C30.8592 43.6402 30.0111 43.2983 29.3266 42.6146C28.6421 41.93 28.2998 41.0819 28.2998 40.0702C28.2998 39.0586 28.6421 38.2105 29.3266 37.5259C30.0111 36.8414 30.8592 36.4991 31.8709 36.4991C32.8826 36.4991 33.7307 36.8414 34.4152 37.5259C35.0998 38.2105 35.442 39.0586 35.442 40.0702C35.442 41.0819 35.0998 41.93 34.4152 42.6146C33.7307 43.2983 32.8826 43.6402 31.8709 43.6402ZM31.8709 59.2841C30.8592 59.2841 30.0111 58.9419 29.3266 58.2574C28.6421 57.5736 28.2998 56.7258 28.2998 55.7141C28.2998 54.7025 28.6421 53.8543 29.3266 53.1698C30.0111 52.4853 30.8592 52.143 31.8709 52.143C32.8826 52.143 33.7307 52.4853 34.4152 53.1698C35.0998 53.8543 35.442 54.7025 35.442 55.7141C35.442 56.7258 35.0998 57.5736 34.4152 58.2574C33.7307 58.9419 32.8826 59.2841 31.8709 59.2841ZM31.8709 74.928C30.8592 74.928 30.0111 74.5858 29.3266 73.9012C28.6421 73.2167 28.2998 72.3686 28.2998 71.3569C28.2998 70.3452 28.6421 69.4975 29.3266 68.8137C30.0111 68.1292 30.8592 67.7869 31.8709 67.7869C32.8826 67.7869 33.7307 68.1292 34.4152 68.8137C35.0998 69.4975 35.442 70.3452 35.442 71.3569C35.442 72.3686 35.0998 73.2167 34.4152 73.9012C33.7307 74.5858 32.8826 74.928 31.8709 74.928ZM31.8709 90.5719C30.8592 90.5719 30.0111 90.2297 29.3266 89.5451C28.6421 88.8606 28.2998 88.0125 28.2998 87.0008C28.2998 85.9891 28.6421 85.141 29.3266 84.4565C30.0111 83.7727 30.8592 83.4308 31.8709 83.4308C32.8826 83.4308 33.7307 83.7727 34.4152 84.4565C35.0998 85.141 35.442 85.9891 35.442 87.0008C35.442 88.0125 35.0998 88.8606 34.4152 89.5451C33.7307 90.2297 32.8826 90.5719 31.8709 90.5719ZM31.8709 106.216C30.8592 106.216 30.0111 105.874 29.3266 105.189C28.6421 104.505 28.2998 103.656 28.2998 102.645C28.2998 101.633 28.6421 100.785 29.3266 100.1C30.0111 99.4159 30.8592 99.0736 31.8709 99.0736C32.8826 99.0736 33.7307 99.4159 34.4152 100.1C35.0998 100.785 35.442 101.633 35.442 102.645C35.442 103.656 35.0998 104.505 34.4152 105.189C33.7307 105.874 32.8826 106.216 31.8709 106.216ZM47.5148 106.216C46.5031 106.216 45.655 105.874 44.9705 105.189C44.286 104.505 43.9437 103.656 43.9437 102.645C43.9437 101.633 44.286 100.785 44.9705 100.1C45.655 99.4159 46.5031 99.0736 47.5148 99.0736C48.5265 99.0736 49.3746 99.4159 50.0591 100.1C50.7429 100.785 51.0848 101.633 51.0848 102.645C51.0848 103.656 50.7429 104.505 50.0591 105.189C49.3746 105.874 48.5265 106.216 47.5148 106.216ZM63.1587 106.216C62.147 106.216 61.2989 105.874 60.6144 105.189C59.9299 104.505 59.5876 103.656 59.5876 102.645C59.5876 101.633 59.9299 100.785 60.6144 100.1C61.2989 99.4159 62.147 99.0736 63.1587 99.0736C64.1704 99.0736 65.0181 99.4159 65.7019 100.1C66.3864 100.785 66.7287 101.633 66.7287 102.645C66.7287 103.656 66.3864 104.505 65.7019 105.189C65.0181 105.874 64.1704 106.216 63.1587 106.216ZM78.8015 106.216C77.7898 106.216 76.9421 105.874 76.2583 105.189C75.5737 104.505 75.2315 103.656 75.2315 102.645C75.2315 101.633 75.5737 100.785 76.2583 100.1C76.9421 99.4159 77.7898 99.0736 78.8015 99.0736C79.8132 99.0736 80.6613 99.4159 81.3458 100.1C82.0303 100.785 82.3726 101.633 82.3726 102.645C82.3726 103.656 82.0303 104.505 81.3458 105.189C80.6613 105.874 79.8132 106.216 78.8015 106.216Z" fill="white"/>
<path d="M86.1795 51.9857C85.6739 49.9568 84.7153 48.4269 82.6733 48.4269H80.0403V51.5392C80.0403 53.9555 77.9917 55.9909 75.6542 55.9909H68.6418C66.7245 55.9909 65.1355 57.6324 65.1355 59.5562V66.2404C65.1355 68.1446 66.7902 69.2608 68.6418 69.8058C70.8611 70.4558 72.995 70.574 75.6542 69.8058C77.4205 69.2936 79.1605 68.2628 79.1605 66.2404V63.5681H72.1546V62.6751H82.6733C84.7153 62.6751 85.4704 61.2503 86.1795 59.1163C86.9149 56.9167 86.8821 54.8025 86.1795 51.9857ZM76.0942 65.3475C76.823 65.3475 77.4139 65.945 77.4139 66.6803C77.4139 67.4223 76.823 68.0198 76.0942 68.0198C75.3719 68.0198 74.7744 67.4157 74.7744 66.6803C74.781 65.9384 75.3719 65.3475 76.0942 65.3475ZM68.32 55.1111H75.3325C77.2826 55.1111 78.8388 53.5024 78.8388 51.5457V44.855C78.8388 42.9509 77.2367 41.526 75.3325 41.2043C72.9819 40.8169 70.4277 40.8366 68.32 41.2109C65.3522 41.7361 64.8138 42.8327 64.8138 44.8616V47.5339H71.8328V48.4269H62.1808C60.1388 48.4269 58.3529 49.6547 57.7947 51.9857C57.1513 54.658 57.125 56.3258 57.7947 59.1163C58.2938 61.1912 59.4822 62.6751 61.5242 62.6751H63.9339V59.4709C63.9339 57.1531 65.9366 55.1111 68.32 55.1111ZM67.8801 45.748C67.1513 45.748 66.5603 45.1505 66.5603 44.4151C66.5669 43.6731 67.1513 43.0756 67.8801 43.0756C68.6024 43.0756 69.1999 43.6797 69.1999 44.4151C69.1999 45.1505 68.6089 45.748 67.8801 45.748Z" fill="white"/>
</svg>
