<svg width="128" height="129" viewBox="0 0 128 129" fill="none" xmlns="http://www.w3.org/2000/svg">
<rect y="0.28125" width="128" height="128" rx="20" fill="#F39122"/>
<path fill-rule="evenodd" clip-rule="evenodd" d="M76.0466 89.7493H67.2619C65.2637 89.7493 63.5567 89.0439 62.1408 87.6329C60.7256 86.2213 60.018 84.5194 60.018 82.5272V49.7983H50.0001V55.714C50.0001 57.3993 49.4081 58.8322 48.224 60.0128C47.0398 61.1933 45.6026 61.7836 43.9123 61.7836H30.0415C28.3511 61.7836 26.9139 61.1933 25.7298 60.0128C24.5457 58.8322 23.9536 57.3993 23.9536 55.714V37.8899C23.9536 36.2046 24.5457 34.7717 25.7298 33.5911C26.9139 32.4106 28.3511 31.8203 30.0415 31.8203H43.9123C45.6026 31.8203 47.0398 32.4106 48.224 33.5911C49.4081 34.7717 50.0001 36.2046 50.0001 37.8899V43.8056H76.0466V37.8899C76.0466 36.2046 76.6387 34.7717 77.8228 33.5911C79.0069 32.4106 80.4442 31.8203 82.1345 31.8203H96.0053C97.6956 31.8203 99.1329 32.4106 100.317 33.5911C101.501 34.7717 102.093 36.2046 102.093 37.8899V55.714C102.093 57.3993 101.501 58.8322 100.317 60.0128C99.1329 61.1933 97.6956 61.7836 96.0053 61.7836H82.1345C80.4442 61.7836 79.0069 61.1933 77.8228 60.0128C76.6387 58.8322 76.0466 57.3993 76.0466 55.714V49.7983H66.0287V82.5272C66.0287 82.8861 66.1443 83.1807 66.3754 83.4111C66.6064 83.6415 66.902 83.7567 67.2619 83.7567H76.0466V89.7493ZM29.9643 55.7909V37.813H43.9894V55.7909H29.9643ZM82.0574 55.7909V37.813H96.0824V55.7909H82.0574Z" fill="white"/>
<path d="M89.8674 97.1651H77.7809C77.1316 97.1651 76.588 96.9459 76.1502 96.5076C75.7118 96.0698 75.4927 95.5262 75.4927 94.8768C75.4927 94.2275 75.7118 93.6839 76.1502 93.2461C76.588 92.8078 77.1316 92.5886 77.7809 92.5886H89.8674C90.5168 92.5886 91.0604 92.8078 91.4982 93.2461C91.9365 93.6839 92.1557 94.2275 92.1557 94.8768C92.1557 95.5262 91.9365 96.0698 91.4982 96.5076C91.0604 96.9459 90.5168 97.1651 89.8674 97.1651Z" fill="white"/>
<path d="M96.8499 89.3022H84.7634C84.114 89.3022 83.5704 89.083 83.1326 88.6447C82.6943 88.2069 82.4751 87.6633 82.4751 87.0139C82.4751 86.3646 82.6943 85.821 83.1326 85.3832C83.5704 84.9449 84.114 84.7257 84.7634 84.7257H96.8499C97.4992 84.7257 98.0428 84.9449 98.4806 85.3832C98.919 85.821 99.1381 86.3646 99.1381 87.0139C99.1381 87.6633 98.919 88.2069 98.4806 88.6447C98.0428 89.083 97.4992 89.3022 96.8499 89.3022Z" fill="white"/>
<path d="M101.662 81.4393H89.5753C88.9259 81.4393 88.3823 81.2201 87.9445 80.7818C87.5062 80.344 87.287 79.8004 87.287 79.151C87.287 78.5017 87.5062 77.9581 87.9445 77.5203C88.3823 77.082 88.9259 76.8628 89.5753 76.8628H101.662C102.311 76.8628 102.855 77.082 103.293 77.5203C103.731 77.9581 103.95 78.5017 103.95 79.151C103.95 79.8004 103.731 80.344 103.293 80.7818C102.855 81.2201 102.311 81.4393 101.662 81.4393Z" fill="white"/>
</svg>
