<svg width="128" height="129" viewBox="0 0 128 129" fill="none" xmlns="http://www.w3.org/2000/svg">
<rect y="0.78125" width="128" height="128" rx="20" fill="#F39122"/>
<path d="M99.0674 66.6546L96.6298 64.6888C96.6298 64.6888 94.9113 59.9097 90.794 53.1531C86.6768 46.3965 86.4053 46.3156 84.009 43.679C83.4582 43.0166 83.1662 42.3033 83.1331 41.5389C83.0999 40.7745 83.3919 40.0819 84.009 39.4609C84.6003 38.8659 85.3129 38.5621 86.1467 38.5494C86.98 38.5368 87.672 38.8406 88.2228 39.4609C91.1294 42.5858 91.7288 43.1707 95.7183 49.5795C99.7079 55.9883 101.911 63.3403 101.911 63.3403L101.007 66.3925L99.0674 66.6546ZM30.3999 58.5807C30.5796 53.8565 33.7778 50.1591 40.5337 43.3604C47.2902 36.5624 55.5122 33.1634 65.1999 33.1634H68.4045L63.0662 27.8298C62.5153 27.2755 62.2399 26.5728 62.2399 25.7217C62.2399 24.87 62.5153 24.1669 63.0662 23.6127C63.617 23.0584 64.3157 22.7812 65.1621 22.7812C66.0079 22.7812 66.7063 23.0584 67.2571 23.6127L77.1771 33.6326C77.5496 34.0075 77.8121 34.4027 77.9646 34.8182C78.1177 35.2337 78.1942 35.6826 78.1942 36.1649C78.1942 36.6471 78.1177 37.096 77.9646 37.5115C77.8121 37.9271 77.5496 38.3223 77.1771 38.6971L67.2571 48.6791C66.64 49.2994 65.9416 49.5995 65.1621 49.5795C64.3819 49.5588 63.6833 49.238 63.0662 48.617C62.4491 47.9961 62.1405 47.283 62.1405 46.478C62.1405 45.6722 62.4491 44.9589 63.0662 44.3379L68.2056 39.1664H65.1999C57.2304 39.1664 50.4321 41.9971 44.8051 47.6586C39.1788 53.3207 37.4731 54.8638 36.3656 58.5807C36.2583 58.9409 36.0499 59.5 35.4893 59.9097C34.9287 60.3194 34.7992 60.4704 33.8073 60.5998C32.8154 60.7292 31.9988 60.6348 31.215 60.242C30.4313 59.8492 30.4623 59.0615 30.3999 58.5807Z" fill="white"/>
<path d="M44.3413 98.9462C43.3248 98.3807 42.5281 97.6176 41.9512 96.6569C41.3743 95.6961 41.0858 94.6184 41.0858 93.4238V78.4658L34.2041 74.6603C33.6381 74.3374 33.2227 73.9446 32.9578 73.4821C32.6923 73.0201 32.5596 72.5063 32.5596 71.9409C32.5596 71.3755 32.6923 70.8621 32.9578 70.4006C33.2227 69.9386 33.6381 69.5462 34.2041 69.2232L60.5276 54.8807C60.9948 54.6209 61.476 54.4302 61.9713 54.3083C62.4667 54.1871 62.9749 54.1265 63.4961 54.1265C64.0173 54.1265 64.5255 54.1871 65.0209 54.3083C65.5162 54.4302 65.998 54.6206 66.4663 54.8798L96.1962 71.06C96.7265 71.3473 97.1334 71.7358 97.4167 72.2254C97.6994 72.7155 97.8407 73.2442 97.8407 73.8113V94.153C97.8407 94.8856 97.5928 95.4999 97.0969 95.9958C96.601 96.4911 95.9867 96.7388 95.2541 96.7388C94.5209 96.7388 93.9069 96.4911 93.4121 95.9958C92.9168 95.4999 92.6691 94.8856 92.6691 94.153V74.806L85.9064 78.4658V93.4238C85.9064 94.6184 85.6179 95.6961 85.041 96.6569C84.4641 97.6176 83.6674 98.3807 82.6509 98.9462L66.4732 107.692C66.0003 107.957 65.5162 108.15 65.0209 108.272C64.5255 108.394 64.0173 108.454 63.4961 108.454C62.9749 108.454 62.4667 108.394 61.9713 108.272C61.476 108.15 60.9919 107.957 60.519 107.692L44.3413 98.9462ZM63.0979 84.4993C63.253 84.5878 63.3912 84.632 63.5125 84.632C63.6343 84.632 63.7725 84.5878 63.9271 84.4993L87.0803 71.9418L63.9271 59.417C63.7725 59.3285 63.6343 59.2843 63.5125 59.2843C63.3912 59.2843 63.253 59.3285 63.0979 59.417L39.9119 71.9418L63.0979 84.4993ZM63.0651 103.216C63.2197 103.305 63.3634 103.349 63.4961 103.349C63.6288 103.349 63.7725 103.305 63.9271 103.216L80.2375 94.4046C80.4144 94.2943 80.5414 94.1673 80.6184 94.0237C80.696 93.88 80.7348 93.6976 80.7348 93.4763V81.2239L66.5258 89.0279C66.0529 89.2928 65.5625 89.4862 65.0545 89.608C64.5459 89.7298 64.0265 89.7907 63.4961 89.7907C62.9657 89.7907 62.4463 89.7298 61.9377 89.608C61.4298 89.4862 60.9393 89.2928 60.4664 89.0279L46.2574 81.2239V93.4763C46.2574 93.6533 46.2962 93.8248 46.3738 93.9909C46.4508 94.1564 46.5778 94.2943 46.7548 94.4046L63.0651 103.216Z" fill="white"/>
</svg>
