<svg width="34" height="34" viewBox="0 0 34 34" fill="none" xmlns="http://www.w3.org/2000/svg">
<path d="M16.9931 34C14.646 34 12.4371 33.5554 10.3664 32.6663C8.2956 31.7772 6.49494 30.566 4.9644 29.0328C3.4336 27.4995 2.22349 25.6987 1.3341 23.6304C0.444698 21.5618 0 19.354 0 17.0069C0 14.6339 0.444563 12.4157 1.33369 10.3522C2.22282 8.28872 3.434 6.48955 4.96724 4.95469C6.50048 3.4201 8.30126 2.21068 10.3696 1.32641C12.4382 0.442136 14.6466 0 16.9947 0C19.3685 0 21.5876 0.442136 23.6519 1.32641C25.7164 2.21068 27.515 3.41929 29.0477 4.95226C30.5807 6.48496 31.7893 8.28359 32.6736 10.3481C33.5579 12.4124 34 14.6315 34 17.0053C34 19.3534 33.5579 21.5618 32.6736 23.6304C31.7893 25.6987 30.5799 27.4995 29.0453 29.0328C27.5105 30.566 25.7113 31.7772 23.6478 32.6663C21.5843 33.5554 19.3661 34 16.9931 34ZM15.9881 28.3426C16.2579 28.6125 16.5683 28.7474 16.919 28.7474C17.2698 28.7474 17.5802 28.6125 17.85 28.3426L28.2617 17.931C28.5315 17.6611 28.6665 17.3373 28.6665 16.9595C28.6665 16.5817 28.5315 16.2579 28.2617 15.9881L17.85 5.57641C17.5802 5.30656 17.2698 5.17164 16.919 5.17164C16.5683 5.17164 16.2579 5.30656 15.9881 5.57641L5.57641 15.9881C5.30656 16.2579 5.17164 16.5817 5.17164 16.9595C5.17164 17.3373 5.30656 17.6611 5.57641 17.931L15.9881 28.3426ZM13.3167 16.5548V20.1976C13.3167 20.5417 13.2002 20.83 12.9674 21.0626C12.7345 21.2955 12.446 21.4119 12.102 21.4119C11.7577 21.4119 11.4693 21.2955 11.237 21.0626C11.0044 20.83 10.8881 20.5417 10.8881 20.1976V15.3405C10.8881 14.9762 10.9994 14.6827 11.222 14.4601C11.4446 14.2375 11.7381 14.1262 12.1024 14.1262H19.818L18.5102 12.7937C18.2859 12.5527 18.1712 12.2709 18.1661 11.9482C18.161 11.6254 18.2851 11.3374 18.5385 11.084C18.7708 10.8517 19.054 10.7355 19.3881 10.7355C19.7222 10.7355 20.0066 10.8527 20.2413 11.0872L23.4701 14.316C23.7626 14.6088 23.9089 14.9503 23.9089 15.3405C23.9089 15.7307 23.7626 16.0722 23.4701 16.3649L20.2413 19.5937C20.0171 19.8177 19.7352 19.9324 19.3958 19.9378C19.0566 19.9429 18.7602 19.8188 18.5065 19.5654C18.2745 19.333 18.1584 19.0581 18.1584 18.7405C18.1584 18.4229 18.2757 18.1385 18.5102 17.8872L19.818 16.5548H13.3167ZM17 31.5714C21.0746 31.5714 24.5218 30.1615 27.3417 27.3417C30.1615 24.5218 31.5714 21.0746 31.5714 17C31.5714 12.9254 30.1615 9.47818 27.3417 6.65833C24.5218 3.83849 21.0746 2.42857 17 2.42857C12.9254 2.42857 9.47818 3.83849 6.65833 6.65833C3.83849 9.47818 2.42857 12.9254 2.42857 17C2.42857 21.0746 3.83849 24.5218 6.65833 27.3417C9.47818 30.1615 12.9254 31.5714 17 31.5714Z" fill="#676767"/>
</svg>
