<svg width="34" height="34" viewBox="0 0 34 34" fill="none" color="#676767" xmlns="http://www.w3.org/2000/svg">
<path d="M15.2148 2.5116L5.38515 8.19717L15.4658 14.024L25.5465 8.19717L15.7168 2.5116C15.6333 2.45936 15.5496 2.43324 15.4658 2.43324C15.382 2.43324 15.2984 2.45936 15.2148 2.5116ZM1.5896 21.6212V9.23952C1.5896 8.70379 1.7187 8.21309 1.97691 7.76742C2.23512 7.32175 2.59794 6.96273 3.06538 6.69038L13.9904 0.402004C14.2416 0.265962 14.4831 0.165018 14.7149 0.0991739C14.9467 0.0330577 15.1967 0 15.465 0C15.7335 0 15.9907 0.0330577 16.2364 0.0991739C16.4823 0.165018 16.7173 0.265962 16.9412 0.402004L27.8663 6.69038C28.3337 6.96273 28.6965 7.32175 28.9547 7.76742C29.2129 8.21309 29.342 8.70379 29.342 9.23952V14.0803C29.342 14.4272 29.2246 14.718 28.9898 14.9528C28.755 15.1874 28.4642 15.3047 28.1173 15.3047C27.7701 15.3047 27.4794 15.1874 27.2451 14.9528C27.0106 14.718 26.8933 14.4272 26.8933 14.0803V10.2251L16.9004 15.9923C16.4324 16.2601 15.9398 16.3939 15.4226 16.3939C14.9051 16.3939 14.4141 16.2601 13.9496 15.9923L4.03834 10.2251V21.5963C4.03834 21.6798 4.05929 21.7583 4.10119 21.8318C4.1431 21.905 4.20581 21.9677 4.28934 22.0199L13.7235 27.5108C13.9072 27.6129 14.0551 27.7558 14.1672 27.9398C14.2795 28.1234 14.3357 28.3275 14.3357 28.552C14.3357 29.0216 14.1342 29.3709 13.7313 29.6C13.3283 29.8291 12.9228 29.8307 12.5147 29.6049L3.06538 24.1703C2.59794 23.898 2.23512 23.539 1.97691 23.0933C1.7187 22.6476 1.5896 22.1569 1.5896 21.6212ZM25.2608 34C23.2223 34 21.4884 33.2852 20.0588 31.8557C18.6293 30.4262 17.9146 28.6922 17.9146 26.6538C17.9146 24.6153 18.6293 22.8813 20.0588 21.4518C21.4884 20.0223 23.2223 19.3075 25.2608 19.3075C27.2992 19.3075 29.0332 20.0223 30.4627 21.4518C31.8923 22.8813 32.607 24.6153 32.607 26.6538C32.607 28.6922 31.8923 30.4262 30.4627 31.8557C29.0332 33.2852 27.2992 34 25.2608 34ZM25.9828 26.4122V22.6195C25.9828 22.4271 25.9105 22.2587 25.7661 22.1142C25.6218 21.9697 25.4534 21.8975 25.2608 21.8975C25.0682 21.8975 24.8997 21.9697 24.7555 22.1142C24.6111 22.2587 24.5388 22.4271 24.5388 22.6195V26.3807C24.5388 26.5728 24.5743 26.7589 24.6453 26.939C24.7166 27.1192 24.8286 27.2857 24.9812 27.4386L27.4459 29.9028C27.5882 30.0454 27.7551 30.1193 27.9467 30.1245C28.1382 30.1296 28.3103 30.0558 28.4629 29.9028C28.6158 29.7502 28.6923 29.5807 28.6923 29.3943C28.6923 29.2082 28.6158 29.0387 28.4629 28.8858L25.9828 26.4122Z" fill="currentColor"/>
</svg>
