<svg width="34" height="34" viewBox="0 0 34 34" fill="none" xmlns="http://www.w3.org/2000/svg">
<path d="M17.4204 34C17.1012 34 16.8339 33.8923 16.6187 33.6768C16.4032 33.4615 16.2954 33.1943 16.2954 32.875C16.2954 31.6443 15.8363 30.5553 14.9181 29.6081C13.9999 28.6611 12.8869 28.1876 11.5792 28.1876H4.29575C3.97651 28.1876 3.70926 28.0799 3.49402 27.8644C3.27852 27.6492 3.17078 27.3819 3.17078 27.0627C3.17078 26.7434 3.27852 26.4762 3.49402 26.2609C3.70926 26.0454 3.97651 25.9377 4.29575 25.9377H11.5792C12.7889 25.9377 13.9053 26.2218 14.9282 26.7901C15.9512 27.3583 16.7819 28.1415 17.4204 29.1397C18.0589 28.1415 18.8896 27.3583 19.9126 26.7901C20.9356 26.2218 22.0471 25.9377 23.247 25.9377H30.5451C30.8643 25.9377 31.1316 26.0454 31.3468 26.2609C31.5623 26.4762 31.6701 26.7434 31.6701 27.0627C31.6701 27.3819 31.5623 27.6492 31.3468 27.8644C31.1316 28.0799 30.8643 28.1876 30.5451 28.1876H23.247C21.9396 28.1876 20.8291 28.6611 19.9156 29.6081C19.0021 30.5553 18.5454 31.6443 18.5454 32.875C18.5454 33.1943 18.4376 33.4615 18.2221 33.6768C18.0069 33.8923 17.7397 34 17.4204 34Z" fill="#676767"/>
<path d="M9.08697 19.4991C8.64473 19.2531 8.29811 18.9211 8.04712 18.5032C7.79613 18.0852 7.67063 17.6163 7.67063 17.0966V10.589L4.6767 8.9334C4.43046 8.7929 4.24972 8.62203 4.13447 8.42079C4.01897 8.21979 3.96122 7.9963 3.96122 7.75031C3.96122 7.50431 4.01897 7.28094 4.13447 7.0802C4.24972 6.8792 4.43046 6.70846 4.6767 6.56796L16.1289 0.328117C16.3322 0.21512 16.5415 0.132121 16.757 0.0791225C16.9725 0.0263738 17.1936 0 17.4204 0C17.6471 0 17.8682 0.0263738 18.0837 0.0791225C18.2992 0.132121 18.5089 0.214995 18.7126 0.327742L31.6468 7.36707C31.8775 7.49206 32.0545 7.66106 32.1778 7.87405C32.3008 8.0873 32.3623 8.31729 32.3623 8.56404V17.4138C32.3623 17.7326 32.2544 17.9998 32.0386 18.2155C31.8229 18.431 31.5557 18.5388 31.2369 18.5388C30.9179 18.5388 30.6508 18.431 30.4356 18.2155C30.2201 17.9998 30.1123 17.7326 30.1123 17.4138V8.99677L27.1701 10.589V17.0966C27.1701 17.6163 27.0446 18.0852 26.7936 18.5032C26.5427 18.9211 26.196 19.2531 25.7538 19.4991L18.7156 23.3042C18.5099 23.4194 18.2992 23.5035 18.0837 23.5565C17.8682 23.6093 17.6471 23.6357 17.4204 23.6357C17.1936 23.6357 16.9725 23.6093 16.757 23.5565C16.5415 23.5035 16.3309 23.4194 16.1252 23.3042L9.08697 19.4991ZM17.2471 13.2139C17.3146 13.2524 17.3748 13.2717 17.4275 13.2717C17.4805 13.2717 17.5406 13.2524 17.6079 13.2139L27.6809 7.75068L17.6079 2.30169C17.5406 2.26319 17.4805 2.24394 17.4275 2.24394C17.3748 2.24394 17.3146 2.26319 17.2471 2.30169L7.15989 7.75068L17.2471 13.2139ZM17.2329 21.3568C17.3001 21.3953 17.3626 21.4146 17.4204 21.4146C17.4781 21.4146 17.5406 21.3953 17.6079 21.3568L24.7038 17.5233C24.7808 17.4753 24.8361 17.4201 24.8696 17.3576C24.9033 17.2951 24.9202 17.2157 24.9202 17.1194V11.789L18.7385 15.1841C18.5327 15.2994 18.3194 15.3835 18.0984 15.4365C17.8771 15.4895 17.6511 15.516 17.4204 15.516C17.1896 15.516 16.9636 15.4895 16.7424 15.4365C16.5214 15.3835 16.308 15.2994 16.1023 15.1841L9.92057 11.789V17.1194C9.92057 17.1964 9.93745 17.2711 9.9712 17.3433C10.0047 17.4153 10.0599 17.4753 10.1369 17.5233L17.2329 21.3568Z" fill="#676767"/>
</svg>
