<svg width="34" height="34" viewBox="0 0 34 34" fill="none" color="#676767"  xmlns="http://www.w3.org/2000/svg">
<path d="M28.3855 33.974C28.1801 33.974 27.9888 33.9412 27.8118 33.8755C27.6345 33.8099 27.4661 33.6974 27.3067 33.538L18.7101 24.9575C18.5504 24.7978 18.4377 24.6295 18.3721 24.4524C18.3067 24.2754 18.274 24.0842 18.274 23.8787C18.274 23.6733 18.3067 23.482 18.3721 23.305C18.4377 23.128 18.5504 22.9598 18.7101 22.8004L21.9396 19.5708C22.099 19.4111 22.2672 19.2984 22.4443 19.2328C22.6213 19.1675 22.8125 19.1348 23.018 19.1348C23.2234 19.1348 23.4147 19.1675 23.5917 19.2328C23.769 19.2984 23.9374 19.4111 24.0968 19.5708L32.6934 28.1675C32.8531 28.3269 32.9658 28.4951 33.0314 28.6721C33.0968 28.8494 33.1295 29.0408 33.1295 29.2462C33.1295 29.4517 33.0968 29.6429 33.0314 29.82C32.9658 29.997 32.8531 30.1652 32.6934 30.3246L29.4639 33.538C29.3045 33.6974 29.1362 33.8099 28.9592 33.8755C28.7822 33.9412 28.5909 33.974 28.3855 33.974ZM28.3855 31.056L30.1953 29.2462L23.0444 22.0954L21.2346 23.9051L28.3855 31.056ZM5.64098 34C5.43554 34 5.2399 33.9629 5.05406 33.8888C4.86851 33.8143 4.69588 33.6974 4.53619 33.538L1.33307 30.351C1.17337 30.1913 1.05644 30.0187 0.982278 29.8332C0.90783 29.6473 0.870605 29.4517 0.870605 29.2462C0.870605 29.0408 0.90783 28.8467 0.982278 28.664C1.05644 28.4816 1.17337 28.3105 1.33307 28.1508L10.2379 19.246H13.828L15.2116 17.8625L8.0803 10.7312H5.65078L0.919622 6.00005L5.14613 1.77397L9.87729 6.50513V8.93465L17.0081 16.0659L22.0509 11.0232L19.5625 8.53442L21.7197 6.37726H17.3789L16.4314 5.44595L21.877 0L22.8083 0.931316V5.28867L24.9654 3.13152L31.3789 9.51177C31.829 9.95107 32.1683 10.4516 32.3968 11.0134C32.6252 11.5751 32.7395 12.1696 32.7395 12.7967C32.7395 13.3477 32.6444 13.8784 32.4543 14.3887C32.2642 14.899 31.9877 15.3629 31.6249 15.7803L28.0675 12.223L25.664 14.6265L23.8577 12.8197L15.6084 21.069V24.6655L6.71977 33.538C6.56036 33.6974 6.392 33.8143 6.21469 33.8888C6.03766 33.9629 5.84642 34 5.64098 34ZM5.64098 31.0394L13.461 23.2198V21.41H11.6508L3.8312 29.2296L5.64098 31.0394ZM5.64098 31.0394L3.8312 29.2296L4.74931 30.1217L5.64098 31.0394Z" fill="currentColor"/>
</svg>
